<?xml version="1.0" encoding="iso-8859-1"?>
<!-- Uploaded to: SVG Repo, www.svgrepo.com, Generator: SVG Repo Mixer Tools -->
<svg fill="#000000" height="800px" width="800px" version="1.1" id="Layer_1" xmlns="http://www.w3.org/2000/svg" xmlns:xlink="http://www.w3.org/1999/xlink" 
	 viewBox="0 0 512 512" xml:space="preserve">
<g>
	<g>
		<path d="M256,0C132.249,0,38.956,45.469,38.956,105.738c0,60.27,93.294,105.739,217.044,105.739s217.044-45.469,217.044-105.739
			C473.044,45.469,379.751,0,256,0z"/>
	</g>
</g>
<g>
	<g>
		<path d="M256,244.868c-97.523,0-175.356-24.121-217.044-63.139v29.747c0,57.098,93.294,100.174,217.044,100.174
			s217.044-43.076,217.044-100.174V181.73C431.356,220.749,353.523,244.868,256,244.868z"/>
	</g>
</g>
<g>
	<g>
		<path d="M256,345.043c-97.523,0-175.356-24.121-217.044-63.139v29.747c0,57.098,93.294,100.174,217.044,100.174
			s217.044-43.076,217.044-100.174v-29.747C431.356,320.923,353.523,345.043,256,345.043z"/>
	</g>
</g>
<g>
	<g>
		<path d="M256,445.217c-97.523,0-175.356-24.121-217.044-63.139v29.747C38.956,468.924,132.249,512,256,512
			s217.044-43.076,217.044-100.174v-29.747C431.356,421.097,353.523,445.217,256,445.217z"/>
	</g>
</g>
</svg>